<?xml version="1.0" encoding="UTF-8"?>
<svg version="1.1" xmlns="http://www.w3.org/2000/svg" width="624" height="278">
<path d="M0 0 C205.92 0 411.84 0 624 0 C624 91.74 624 183.48 624 278 C418.08 278 212.16 278 0 278 C0 186.26 0 94.52 0 0 Z " fill="#FCFCFC" transform="translate(0,0)"/>
<path d="M0 0 C6.67060776 -0.20383616 13.34040524 -0.34334853 20.01342773 -0.43945312 C22.28033456 -0.47953818 24.54703644 -0.53402354 26.81323242 -0.60351562 C30.0830348 -0.7012289 33.35009137 -0.74607642 36.62109375 -0.78125 C37.62458359 -0.82254028 38.62807343 -0.86383057 39.66197205 -0.90637207 C45.39826358 -0.90998145 48.53377846 -0.09635216 52.89868164 3.73632812 C54.28917364 5.13468026 55.65942507 6.55372356 57 8 C58.24233398 9.21139648 58.24233398 9.21139648 59.50976562 10.44726562 C60.33154297 11.28966797 61.15332031 12.13207031 62 13 C63.35472011 14.35751803 64.71102238 15.71345788 66.06835938 17.06835938 C76.35611979 27.35611979 86.64388021 37.64388021 96.93164062 47.93164062 C97.64211044 48.64182846 98.35258026 49.3520163 99.08457947 50.08372498 C100.24391848 51.24358118 101.40235604 52.40434071 102.55909729 53.56678772 C105.59969876 56.6212077 108.74891285 59.53936424 111.9375 62.4375 C117.48959247 67.51482159 122.8196806 72.78173064 128.11010742 78.12963867 C131.64146501 81.6848132 135.25130522 85.05879672 139.078125 88.296875 C142.38813853 91.23013903 145.43598031 94.42904919 148.54296875 97.57421875 C151.29699432 100.29321697 154.15657888 102.83711319 157.11328125 105.33203125 C159.51331399 107.45379933 161.74179833 109.72883745 164 112 C156.45641497 112.17800287 148.91337454 112.30029006 141.36816406 112.38452148 C138.80350506 112.41964715 136.23898547 112.46735936 133.67480469 112.52807617 C129.98076944 112.61333416 126.2885922 112.65276997 122.59375 112.68359375 C120.8839093 112.73778725 120.8839093 112.73778725 119.13952637 112.79307556 C113.43725037 112.79586579 109.83555004 112.48370525 105.41601562 108.69165039 C104.23936185 107.49736686 103.09840969 106.26661889 102 105 C101.4291568 104.34737686 100.8583136 103.69475372 100.27017212 103.02235413 C99.18021312 101.75158136 98.0943702 100.47727372 97.01123047 99.20068359 C94.66798423 96.63670914 92.15650899 94.35794734 89.5703125 92.0390625 C82.85804107 85.9593869 76.48675089 79.56737658 70.125 73.125 C67.96394868 70.93709538 65.79939701 68.7527364 63.6328125 66.5703125 C63.15458038 66.08378204 62.67634827 65.59725159 62.18362427 65.09597778 C58.92040471 61.80939303 55.59262404 58.99385337 52 56 C51.67 76.46 51.34 96.92 51 118 C90.93 118 130.86 118 172 118 C172 79.06 172 40.12 172 0 C187.84 0 203.68 0 220 0 C218.02 2.31 216.04 4.62 214 7 C212.37911301 10.24177399 212.8520345 13.80013286 212.85282898 17.36236572 C212.84915229 18.23780493 212.8454756 19.11324415 212.8416875 20.01521182 C212.8306219 22.96620174 212.82680196 25.91715648 212.82299805 28.86816406 C212.81673558 30.97692477 212.81008897 33.08568437 212.80308533 35.19444275 C212.78565567 40.93627576 212.77511826 46.67810042 212.7668798 52.41995335 C212.76173392 56.00505532 212.75565801 59.59015469 212.74936867 63.17525482 C212.73031131 74.38577794 212.7160812 85.59629444 212.7077567 96.80683064 C212.69798058 109.75942385 212.67165345 122.71184633 212.63125581 135.66437936 C212.60112376 145.66782919 212.5862906 155.67123 212.58297569 165.67472434 C212.58062192 171.6531021 212.57161891 177.63129758 212.54651451 183.60962677 C212.52327976 189.23371708 212.51898214 194.85750451 212.52927589 200.48163033 C212.52977248 202.54642047 212.52341605 204.6112253 212.50971985 206.67597008 C212.49207059 209.49424497 212.49907285 212.31142471 212.51225281 215.12969971 C212.50128356 215.9474123 212.49031432 216.7651249 212.47901267 217.60761666 C212.53895154 222.91384128 213.68706182 225.67596283 217 230 C217 230.66 217 231.32 217 232 C217.99 232.33 218.98 232.66 220 233 C220 233.33 220 233.66 220 234 C201.85 234 183.7 234 165 234 C166.98 231.03 168.96 228.06 171 225 C171.88301316 221.08668692 171.88301316 221.08668692 171.77294922 217.09350586 C171.78358461 216.34900712 171.79422001 215.60450838 171.80517769 214.83744907 C171.83250595 212.46250726 171.81962208 210.08985368 171.8046875 207.71484375 C171.81576088 206.23471874 171.82950708 204.75461127 171.84594727 203.27453613 C171.88791501 197.82901053 171.87843338 192.38318624 171.875 186.9375 C171.91625 174.748125 171.9575 162.55875 172 150 C132.07 150 92.14 150 51 150 C51.061875 167.7890625 51.061875 167.7890625 51.125 185.9375 C51.12258301 189.66667725 51.12016602 193.39585449 51.11767578 197.23803711 C51.14424806 200.61357101 51.14424806 200.61357101 51.17868042 203.98902893 C51.19013892 205.47942282 51.1900261 206.96993563 51.1803894 208.46034241 C51.1294776 217.82216494 51.54086877 224.65325709 58 232 C58.33 232.66 58.66 233.32 59 234 C40.52 234 22.04 234 3 234 C4.98 231.69 6.96 229.38 9 227 C11.43414118 222.68731427 11.28628295 218.34230121 11.26742554 213.50465393 C11.27195665 212.65115276 11.27648776 211.79765159 11.28115618 210.91828674 C11.29381251 208.05948307 11.29217902 205.2008696 11.29052734 202.34204102 C11.29651175 200.291949 11.30331709 198.24185925 11.31088257 196.19177246 C11.32855688 190.6236494 11.3332385 185.0555878 11.33451414 179.48743939 C11.33641299 174.84018362 11.34377022 170.19294217 11.35085833 165.54569191 C11.36714468 154.58310688 11.37202699 143.62055471 11.37060547 132.65795898 C11.36940337 121.34543296 11.39051832 110.03309752 11.4220928 98.72061974 C11.44823126 89.01009299 11.45897381 79.29962859 11.45769465 69.58906692 C11.45718438 63.78847711 11.46290369 57.98805671 11.48405075 52.18750191 C11.50339257 46.73325484 11.50358529 41.27933954 11.48901749 35.82508087 C11.48692338 33.82318323 11.49166595 31.82126503 11.5037384 29.81940269 C11.51915149 27.08665343 11.50990897 24.35505383 11.49447632 21.62232971 C11.50476344 20.83000917 11.51505057 20.03768862 11.52564943 19.22135836 C11.46087062 14.03141084 10.36664219 11.15358457 7 7 C5.14858243 5.14322483 5.14858243 5.14322483 3.25 3.6875 C2.15251992 2.80905481 1.06457482 1.91804626 0 1 C0 0.67 0 0.34 0 0 Z " fill="#1276B7" transform="translate(26,21)"/>
<path d="M0 0 C13 0 13 0 16.54296875 3.0078125 C17.46896278 4.35059543 18.34935159 5.72570082 19.1875 7.125 C19.67468506 7.85203125 20.16187012 8.5790625 20.66381836 9.328125 C21.66184338 10.81972171 22.64291986 12.32280264 23.60644531 13.83691406 C25.63559723 16.98657874 27.8491846 19.97676477 30.0625 23 C35.43878399 30.6220735 40.71575774 38.31382944 46 46 C46.33 30.82 46.66 15.64 47 0 C50.96 0 54.92 0 59 0 C59 22.44 59 44.88 59 68 C46 68 46 68 42.6328125 64.984375 C41.75243236 63.60020126 40.91836345 62.18582052 40.125 60.75 C39.15040318 59.18984432 38.17101122 57.6326765 37.1875 56.078125 C36.68089844 55.25248047 36.17429687 54.42683594 35.65234375 53.57617188 C32.73483495 49.02747908 29.41249719 44.78480965 26.125 40.5 C24.89543729 38.88770026 23.66877056 37.273187 22.4453125 35.65625 C21.92469238 34.97369141 21.40407227 34.29113281 20.86767578 33.58789062 C18.13543964 29.80204708 15.58978619 25.88467929 13 22 C12.67 36.85 12.34 51.7 12 67 C8.04 67 4.08 67 0 67 C0 44.89 0 22.78 0 0 Z " fill="#040404" transform="translate(287,32)"/>
<path d="M0 0 C4.62 0 9.24 0 14 0 C14.71929688 1.7325 15.43859375 3.465 16.1796875 5.25 C17.93630477 9.466869 19.70954114 13.67573219 21.5078125 17.875 C26.56145303 29.68825653 31.47626248 41.546589 36.1875 53.5 C36.90993896 55.3253125 36.90993896 55.3253125 37.64697266 57.1875 C38.08702637 58.3115625 38.52708008 59.435625 38.98046875 60.59375 C39.37129639 61.59083984 39.76212402 62.58792969 40.16479492 63.61523438 C41 66 41 66 41 68 C36.71 68 32.42 68 28 68 C26.02 63.05 24.04 58.1 22 53 C12.1 53 2.2 53 -8 53 C-9.65 57.62 -11.3 62.24 -13 67 C-14 68 -14 68 -16.94140625 68.09765625 C-18.13636719 68.08605469 -19.33132813 68.07445313 -20.5625 68.0625 C-21.76003906 68.05347656 -22.95757813 68.04445313 -24.19140625 68.03515625 C-25.58166016 68.01775391 -25.58166016 68.01775391 -27 68 C-24.57375892 58.5461268 -20.66973261 49.71172502 -16.875 40.75 C-15.86181726 38.34158918 -14.85042112 35.93243296 -13.83906555 33.52325439 C-13.17013345 31.93019112 -12.50061252 30.33737495 -11.83049011 28.74481201 C-9.03388282 22.09625913 -6.28448957 15.42949213 -3.5625 8.75 C-3.0063501 7.38633301 -3.0063501 7.38633301 -2.43896484 5.99511719 C-1.62489004 3.99718716 -0.81223789 1.99867751 0 0 Z " fill="#090909" transform="translate(553,32)"/>
<path d="M0 0 C15.84 0 31.68 0 48 0 C48 3.63 48 7.26 48 11 C36.45 11 24.9 11 13 11 C13 16.61 13 22.22 13 28 C23.23 28 33.46 28 44 28 C44 31.63 44 35.26 44 39 C33.77 39 23.54 39 13 39 C13 44.94 13 50.88 13 57 C24.55 57 36.1 57 48 57 C48 60.63 48 64.26 48 68 C32.16 68 16.32 68 0 68 C0 45.56 0 23.12 0 0 Z " fill="#080808" transform="translate(374,32)"/>
<path d="M0 0 C7.87459966 1.12494281 7.87459966 1.12494281 10.51342773 3.84814453 C11.10772079 4.44611847 11.70201385 5.04409241 12.3143158 5.66018677 C12.93117752 6.31115326 13.54803925 6.96211975 14.18359375 7.6328125 C14.84279312 8.30287323 15.50199249 8.97293396 16.1811676 9.66329956 C18.28125803 11.80345044 20.35977813 13.96314715 22.4375 16.125 C24.51576273 18.26103926 26.59830939 20.39278327 28.68312073 22.52243042 C29.97575393 23.84569763 31.26395648 25.17331405 32.54673767 26.50613403 C36.30005992 30.3815945 40.18898503 33.9914685 44.30580139 37.47970581 C46.49053804 39.44018577 48.17594805 41.70522497 50 44 C52.80753689 47.37300039 55.3510261 49.68448055 59.75314331 50.52679443 C63.08921372 50.693425 66.37575759 50.67454947 69.71484375 50.5859375 C70.92572159 50.57744781 72.13659943 50.56895813 73.38417053 50.56021118 C77.23620083 50.52673378 81.08610673 50.45145565 84.9375 50.375 C87.55530823 50.34489351 90.17314939 50.31751892 92.79101562 50.29296875 C99.19473026 50.22696041 105.59721333 50.12666462 112 50 C112 50.99 112 51.98 112 53 C111.36328873 53.01030746 110.72657745 53.02061493 110.0705719 53.03123474 C103.46873202 53.13906331 96.86703522 53.25367961 90.26538086 53.37231445 C87.79861431 53.41573943 85.33181622 53.45740872 82.86499023 53.49731445 C79.32786534 53.55483445 75.79090034 53.61858075 72.25390625 53.68359375 C71.14350479 53.70030624 70.03310333 53.71701874 68.88905334 53.73423767 C67.86807053 53.75418289 66.84708771 53.77412811 65.79516602 53.79467773 C64.43948265 53.81799416 64.43948265 53.81799416 63.05641174 53.84178162 C61.00805899 53.77501457 61.00805899 53.77501457 60 55 C58.1281906 55.09386381 56.2528194 55.11743804 54.37866211 55.11352539 C53.17749252 55.11344986 51.97632294 55.11337433 50.73875427 55.11329651 C49.4314888 55.10813522 48.12422333 55.10297394 46.77734375 55.09765625 C45.43355868 55.09579198 44.08977293 55.09436812 42.74598694 55.09336853 C39.20317723 55.08954402 35.6604083 55.07971432 32.11761475 55.06866455 C28.50484784 55.05844899 24.89207416 55.0538159 21.27929688 55.04882812 C14.18616187 55.03862218 7.09313893 55.01905051 0 55 C0 36.85 0 18.7 0 0 Z " fill="#F9FCFD" transform="translate(79,82)"/>
<path d="M0 0 C5.1861714 -1.45654175 10.0271051 -2.3740845 15 0 C21.29674489 6.22912884 25.67663507 14.33378891 30 22 C33.99689065 16.95040118 37.85701867 11.89516504 41.375 6.5 C44.91970803 1.08029197 44.91970803 1.08029197 46 0 C48.53049402 -0.07313567 51.03304837 -0.09247527 53.5625 -0.0625 C54.62887695 -0.05573242 54.62887695 -0.05573242 55.71679688 -0.04882812 C57.47790013 -0.03700864 59.23896036 -0.01907263 61 0 C59.3010815 3.78563362 56.92743587 7.0346028 54.5 10.375 C53.60668433 11.614521 52.71345797 12.85410636 51.8203125 14.09375 C51.35915039 14.73183594 50.89798828 15.36992188 50.42285156 16.02734375 C48.06143878 19.30123107 45.71908745 22.58869794 43.375 25.875 C42.52873426 27.05995899 41.68238837 28.24486074 40.8359375 29.4296875 C39.92714844 30.70199219 39.92714844 30.70199219 39 32 C40.37820348 34.8974797 41.94457236 37.51466368 43.7578125 40.16015625 C44.29768799 40.94914307 44.83756348 41.73812988 45.39379883 42.55102539 C45.96509521 43.37981201 46.5363916 44.20859863 47.125 45.0625 C47.70596436 45.90997803 48.28692871 46.75745605 48.88549805 47.63061523 C52.71485135 53.19686328 56.63014125 58.67818668 60.70703125 64.06640625 C62 66 62 66 62 68 C48.95066043 69.51150651 48.95066043 69.51150651 44.76171875 66.265625 C42.93695306 63.60033479 41.48159035 60.87080336 40 58 C38.40052865 55.42779448 36.72691013 52.90549714 35.0625 50.375 C33.70226104 48.25381103 32.35146624 46.12679721 31 44 C27.81157309 46.97586511 25.48614639 50.08974898 23.125 53.75 C22.41730469 54.801875 21.70960938 55.85375 20.98046875 56.9375 C19.01800146 59.86367949 19.01800146 59.86367949 17.67578125 62.5625 C16.27747585 65.0326925 15.37868645 66.4232707 13 68 C7.90782314 68.66536347 3.10093556 68.46726127 -2 68 C-0.64690001 65.13294476 0.89181674 62.6192825 2.7578125 60.05859375 C3.29776855 59.31504639 3.83772461 58.57149902 4.39404297 57.80541992 C4.96525879 57.02400635 5.53647461 56.24259277 6.125 55.4375 C6.70523926 54.63481689 7.28547852 53.83213379 7.88330078 53.00512695 C10.43412495 49.48223961 12.99572067 45.97582699 15.671875 42.546875 C16.39890625 41.60328125 17.1259375 40.6596875 17.875 39.6875 C18.51179688 38.88699219 19.14859375 38.08648437 19.8046875 37.26171875 C21.16997477 35.08949771 21.16997477 35.08949771 21.04296875 32.71484375 C19.47863587 28.64289112 17.00679052 25.37684494 14.4375 21.875 C13.89899414 21.12597412 13.36048828 20.37694824 12.80566406 19.60522461 C10.36922003 16.22333278 7.90304839 12.8637801 5.42578125 9.51171875 C4.70777344 8.53847656 3.98976563 7.56523438 3.25 6.5625 C2.61578125 5.71816406 1.9815625 4.87382813 1.328125 4.00390625 C0 2 0 2 0 0 Z " fill="#080808" transform="translate(444,32)"/>
<path d="M0 0 C2.05078125 0.03255208 4.1015625 0.06510417 6.15234375 0.09765625 C11.04176354 10.23469508 15.16301627 20.58141133 19.15234375 31.09765625 C16.51234375 31.09765625 13.87234375 31.09765625 11.15234375 31.09765625 C9.66734375 27.63265625 9.66734375 27.63265625 8.15234375 24.09765625 C3.86234375 24.09765625 -0.42765625 24.09765625 -4.84765625 24.09765625 C-5.83765625 26.40765625 -6.82765625 28.71765625 -7.84765625 31.09765625 C-10.15765625 31.09765625 -12.46765625 31.09765625 -14.84765625 31.09765625 C-14.20738086 27.15290872 -12.99451161 23.82538045 -11.37890625 20.17578125 C-10.89035156 19.06847656 -10.40179688 17.96117187 -9.8984375 16.8203125 C-9.38667969 15.67433594 -8.87492187 14.52835938 -8.34765625 13.34765625 C-7.83589844 12.18621094 -7.32414062 11.02476562 -6.796875 9.828125 C-2.49885987 0.13207505 -2.49885987 0.13207505 0 0 Z " fill="#0B0B0B" transform="translate(420.84765625,119.90234375)"/>
<path d="M0 0 C2.31 0 4.62 0 7 0 C7 3.96 7 7.92 7 12 C11.62 12 16.24 12 21 12 C21 8.04 21 4.08 21 0 C23.31 0 25.62 0 28 0 C28 10.23 28 20.46 28 31 C25.69 31 23.38 31 21 31 C21 26.71 21 22.42 21 18 C16.38 18 11.76 18 7 18 C7 22.29 7 26.58 7 31 C4.69 31 2.38 31 0 31 C0 20.77 0 10.54 0 0 Z " fill="#111111" transform="translate(535,120)"/>
<path d="M0 0 C0.33 0 0.66 0 1 0 C1 38.94 1 77.88 1 118 C-38.93 118 -78.86 118 -120 118 C-120 97.21 -120 76.42 -120 55 C-117.36 56.98 -114.72 58.96 -112 61 C-115 62 -115 62 -118 61 C-118 79.15 -118 97.3 -118 116 C-79.39 115.67 -40.78 115.34 -1 115 C-0.67 77.05 -0.34 39.1 0 0 Z " fill="#C6EBF8" transform="translate(197,21)"/>
<path d="M0 0 C1.98 0 3.96 0 6 0 C6 3.96 6 7.92 6 12 C10.95 12 15.9 12 21 12 C21 8.04 21 4.08 21 0 C22.98 0 24.96 0 27 0 C27 10.23 27 20.46 27 31 C24.69 31 22.38 31 20 31 C20 26.71 20 22.42 20 18 C15.71 18 11.42 18 7 18 C7 22.29 7 26.58 7 31 C4.69 31 2.38 31 0 31 C0 20.77 0 10.54 0 0 Z " fill="#0D0D0D" transform="translate(317,120)"/>
<path d="M0 0 C39.93 0 79.86 0 121 0 C121.0825 12.271875 121.165 24.54375 121.25 37.1875 C121.28641602 41.05750732 121.32283203 44.92751465 121.36035156 48.91479492 C121.37841797 53.6529541 121.37841797 53.6529541 121.3817749 55.87348938 C121.38790365 57.41914987 121.40194415 58.96479163 121.42230225 60.5103302 C121.4516515 62.85642541 121.45562199 65.2013557 121.45410156 67.54760742 C121.468494 68.23224406 121.48288643 68.9168807 121.497715 69.62226391 C121.4569427 74.3331203 120.25324871 76.64344758 117 80 C117.33 77.69 117.66 75.38 118 73 C118.33 73 118.66 73 119 73 C119.33 49.57 119.66 26.14 120 2 C81.06 2 42.12 2 2 2 C2.103125 13.364375 2.20625 24.72875 2.3125 36.4375 C2.33739502 40.01005615 2.36229004 43.5826123 2.38793945 47.26342773 C2.42455493 50.49923766 2.42455493 50.49923766 2.4650116 53.73500061 C2.48103521 55.16288863 2.49140813 56.59084757 2.49711609 58.01881409 C2.5340179 66.17891508 2.79425005 73.3830784 6 81 C2.16540336 77.42104314 0.15364192 75.07768481 -0.24050903 69.74761963 C-0.23606781 68.45966492 -0.23162659 67.17171021 -0.22705078 65.84472656 C-0.22729185 65.12065487 -0.22753292 64.39658318 -0.2277813 63.65056992 C-0.22629211 61.3137953 -0.21107773 58.97734232 -0.1953125 56.640625 C-0.19237083 55.1951513 -0.19033115 53.74967548 -0.18920898 52.30419922 C-0.17873596 46.95276693 -0.15081345 41.60138028 -0.125 36.25 C-0.08375 24.2875 -0.0425 12.325 0 0 Z " fill="#C6ECFA" transform="translate(77,171)"/>
<path d="M0 0 C7.59 0 15.18 0 23 0 C23 1.65 23 3.3 23 5 C17.39 5 11.78 5 6 5 C6 7.31 6 9.62 6 12 C10.95 12 15.9 12 21 12 C21 13.98 21 15.96 21 18 C16.38 18 11.76 18 7 18 C7 20.64 7 23.28 7 26 C12.28 26 17.56 26 23 26 C23 27.65 23 29.3 23 31 C15.41 31 7.82 31 0 31 C0 20.77 0 10.54 0 0 Z " fill="#0B0B0B" transform="translate(366,120)"/>
<path d="M0 0 C1.32 0 2.64 0 4 0 C4 1.32 4 2.64 4 4 C5.65 4 7.3 4 9 4 C9 4.99 9 5.98 9 7 C9.680625 6.505 10.36125 6.01 11.0625 5.5 C14.68707015 3.64915567 16.97508528 3.56091839 21 4 C23.19921875 5.07421875 23.19921875 5.07421875 25 7 C25.390625 10.35546875 25.390625 10.35546875 25.25 14.1875 C25.21390625 15.45980469 25.1778125 16.73210937 25.140625 18.04296875 C25.07101562 19.50669922 25.07101562 19.50669922 25 21 C23.08591243 21.24979445 21.16848389 21.47408014 19.25 21.6875 C18.18265625 21.81511719 17.1153125 21.94273437 16.015625 22.07421875 C12.59442134 21.99001814 11.44579177 21.30925485 9 19 C9 19.66 9 20.32 9 21 C5.625 21.125 5.625 21.125 2 21 C0 19 0 19 -0.1953125 16.1796875 C-0.17210937 15.08914062 -0.14890625 13.99859375 -0.125 12.875 C-0.10695313 11.77929688 -0.08890625 10.68359375 -0.0703125 9.5546875 C-0.04710937 8.71164063 -0.02390625 7.86859375 0 7 C-0.66 7 -1.32 7 -2 7 C-2 6.01 -2 5.02 -2 4 C-1.34 4 -0.68 4 0 4 C0 2.68 0 1.36 0 0 Z " fill="#E2E2E2" transform="translate(540,221)"/>
<path d="M0 0 C1.98 0 3.96 0 6 0 C6.8394882 2.10171867 7.67139656 4.20646625 8.5 6.3125 C8.9640625 7.48425781 9.428125 8.65601563 9.90625 9.86328125 C11 13 11 13 11 16 C11.66 16 12.32 16 13 16 C13.0825 15.21625 13.165 14.4325 13.25 13.625 C14.24365069 8.822355 16.08713518 4.50190511 18 0 C19.98 0 21.96 0 24 0 C24 7.59 24 15.18 24 23 C22.68 23 21.36 23 20 23 C19.67 18.05 19.34 13.1 19 8 C17.35 12.95 15.7 17.9 14 23 C12.68 23 11.36 23 10 23 C8.35 18.38 6.7 13.76 5 9 C4.67 13.62 4.34 18.24 4 23 C2.68 23 1.36 23 0 23 C0 15.41 0 7.82 0 0 Z " fill="#161616" transform="translate(332,219)"/>
<path d="M0 0 C8.91 0 17.82 0 27 0 C27 1.65 27 3.3 27 5 C23.7 5 20.4 5 17 5 C17 13.58 17 22.16 17 31 C14.69 31 12.38 31 10 31 C10 22.42 10 13.84 10 5 C6.7 5 3.4 5 0 5 C0 3.35 0 1.7 0 0 Z " fill="#0C0C0C" transform="translate(490,120)"/>
<path d="M0 0 C2.31 0 4.62 0 7 0 C7 8.25 7 16.5 7 25 C11.95 25 16.9 25 22 25 C22 26.98 22 28.96 22 31 C14.74 31 7.48 31 0 31 C0 20.77 0 10.54 0 0 Z " fill="#101010" transform="translate(457,120)"/>
<path d="M0 0 C0.66 0 1.32 0 2 0 C3.51110807 3.74561895 5.00693339 7.4971569 6.5 11.25 C7.14388672 12.84521484 7.14388672 12.84521484 7.80078125 14.47265625 C8.40986328 16.00986328 8.40986328 16.00986328 9.03125 17.578125 C9.40830078 18.52075195 9.78535156 19.46337891 10.17382812 20.43457031 C11 23 11 23 11 27 C4.4 27 -2.2 27 -9 27 C-8.21917849 22.31507096 -7.47676005 19.37921139 -5.625 15.1875 C-3.47001908 10.18419646 -1.64410931 5.19192414 0 0 Z " fill="#F1F1F1" transform="translate(559,46)"/>
<path d="M0 0 C12 0 12 0 15.3125 1.9375 C17.36863033 5.66899578 17.25082396 7.78771449 16.6875 11.9140625 C15.88166968 14.35902496 15.01380334 15.41703439 13 17 C10 17.8125 10 17.8125 7 18 C6.01 17.34 5.02 16.68 4 16 C4 18.64 4 21.28 4 24 C2.68 24 1.36 24 0 24 C0 16.08 0 8.16 0 0 Z " fill="#232323" transform="translate(512,225)"/>
<path d="M0 0 C1.65 0 3.3 0 5 0 C5 7.92 5 15.84 5 24 C-7.40244519 24.36838946 -7.40244519 24.36838946 -9.89453125 22.83203125 C-11.41687743 20.30913246 -11.39864312 18.43174726 -11.375 15.5 C-11.38273437 14.5409375 -11.39046875 13.581875 -11.3984375 12.59375 C-11 10 -11 10 -9.70703125 8.16796875 C-6.95343606 6.28392994 -4.22687331 6.81734679 -1 7 C-0.67 4.69 -0.34 2.38 0 0 Z " fill="#1E1E1E" transform="translate(389,218)"/>
<path d="M0 0 C1.65 0 3.3 0 5 0 C6.87014121 2.16448775 8.31512026 4.10319582 9.8125 6.5 C10.21919922 7.12003906 10.62589844 7.74007812 11.04492188 8.37890625 C12.04550555 9.90921069 13.02485338 11.45336222 14 13 C14.33 8.71 14.66 4.42 15 0 C16.32 0 17.64 0 19 0 C19 7.59 19 15.18 19 23 C14 22 14 22 11.76171875 19.27734375 C11.07722656 18.17519531 10.39273437 17.07304687 9.6875 15.9375 C8.99011719 14.83277344 8.29273438 13.72804687 7.57421875 12.58984375 C7.05472656 11.73519531 6.53523438 10.88054687 6 10 C5.67 14.29 5.34 18.58 5 23 C3.35 23 1.7 23 0 23 C0 15.41 0 7.82 0 0 Z " fill="#292929" transform="translate(284,178)"/>
<path d="M0 0 C2.02734375 0.70703125 2.02734375 0.70703125 4.08984375 2.89453125 C5.17892754 6.16178262 5.52606386 8.28723621 5.02734375 11.70703125 C3.22740601 14.40693787 1.94357075 16.24891775 -0.97265625 17.70703125 C-4.9462327 18.23684144 -6.51436006 18.02584599 -9.84765625 15.70703125 C-12.21256469 12.36833697 -12.74129712 10.64802449 -12.4453125 6.6484375 C-10.80484592 -0.08967728 -5.99581542 -1.06747463 0 0 Z " fill="#171717" transform="translate(304.97265625,225.29296875)"/>
<path d="M0 0 C0 3 0 3 -1 6 C-1.67056521 6.54849452 -2.34113043 7.09698904 -3.0320158 7.66210461 C-5.8590809 11.02055762 -5.54516565 14.21520826 -5.48774719 18.40632629 C-5.49187046 19.26235103 -5.49599372 20.11837576 -5.50024194 21.00034064 C-5.50918494 23.87400461 -5.48949663 26.74676013 -5.4699707 29.62036133 C-5.47047939 31.67853404 -5.47273436 33.73670697 -5.47660828 35.7948761 C-5.48203696 41.3901019 -5.46258892 46.98499773 -5.43850732 52.58016419 C-5.41723688 58.43320847 -5.41780698 64.28625121 -5.41581726 70.139328 C-5.40936475 79.97258187 -5.38810213 89.80571158 -5.35668945 99.63891602 C-5.31643591 112.25612857 -5.29900727 124.87326009 -5.28938007 137.49052906 C-5.28107147 148.33810851 -5.26383424 159.18567083 -5.24434257 170.03323531 C-5.2402953 172.36110946 -5.23655547 174.68898416 -5.2331202 177.01685929 C-5.223317 183.65697125 -5.20879546 190.297035 -5.1862812 196.93711662 C-5.18017124 198.94825937 -5.17571417 200.95940792 -5.17303848 202.97055817 C-5.16904093 205.7179839 -5.15890715 208.46532072 -5.14717102 211.21272278 C-5.14735538 212.00670355 -5.14753975 212.80068432 -5.14772969 213.61872512 C-5.12037564 218.17779294 -4.74830089 222.5010707 -4 227 C-7.11978051 223.90422721 -7.36116994 221.18397928 -7.4198786 216.89375186 C-7.41591492 216.0743063 -7.41195123 215.25486074 -7.40786743 214.4105835 C-7.41536967 213.53484657 -7.4228719 212.65910964 -7.43060148 211.75683522 C-7.45196673 208.81662236 -7.45181784 205.87680824 -7.45166016 202.93652344 C-7.46227158 200.83070758 -7.47410131 198.72489756 -7.48706055 196.61909485 C-7.51787664 190.89375369 -7.52898634 185.16853751 -7.53470278 179.44312191 C-7.53905401 175.86635603 -7.54742665 172.28962265 -7.55720139 168.71286774 C-7.59096178 156.23515665 -7.60808434 143.75754026 -7.61083984 131.27978516 C-7.61387411 119.64850181 -7.65431033 108.01775019 -7.71198809 96.38662124 C-7.7597585 86.40176416 -7.7805719 76.41708264 -7.78063047 66.43211198 C-7.78116876 60.46809648 -7.79277849 54.50460136 -7.83180618 48.54070282 C-7.8676543 42.9294966 -7.86996045 37.31926085 -7.84663391 31.70799828 C-7.84377246 29.65048752 -7.85283898 27.59291977 -7.87481308 25.53552437 C-8.05002286 8.04376357 -8.05002286 8.04376357 -3.44735718 2.71368408 C-1.50163841 1.0264473 -1.50163841 1.0264473 0 0 Z " fill="#E0FCFE" transform="translate(245,22)"/>
<path d="M0 0 C4.22187244 0.66661144 5.87219326 1.21999768 8.5625 4.5625 C9.28491241 7.71057359 9.25787012 10.41090316 8.5625 13.5625 C6.13137157 17.06618509 4.74112962 18.31695216 0.5625 19.1875 C-3.57932881 18.324619 -4.99976471 17.00400865 -7.4375 13.5625 C-8.41789906 9.33399621 -7.86881278 6.39062053 -5.875 2.5625 C-3.4375 0.5625 -3.4375 0.5625 0 0 Z " fill="#1C1C1C" transform="translate(366.4375,224.4375)"/>
<path d="M0 0 C3.8425303 0.72047443 5.45767292 1.57152696 8 4.5625 C8.72568888 8.21338839 8.3859346 11.43438347 7.1875 14.9375 C6 16.5625 6 16.5625 3 18.5625 C-0.99800164 19.17089155 -2.52201252 18.89501303 -5.875 16.5625 C-8.24266331 13.2199165 -8.75726358 11.50236585 -8.484375 7.5 C-7.33922431 2.91939725 -4.4623814 0.83669651 0 0 Z " fill="#161616" transform="translate(485,224.4375)"/>
<path d="M0 0 C3.65907504 0.68607657 5.35167676 1.98984314 8 4.5625 C9.42662219 7.41574437 9.31033868 9.39704549 9 12.5625 C7.5625 15.4375 7.5625 15.4375 5 17.5625 C1.85503094 18.27805259 -0.85433287 18.27243955 -4 17.5625 C-7.31578076 14.89370085 -7.89008359 13.24642436 -8.5625 9.0625 C-8 5.5625 -8 5.5625 -5.875 2.625 C-3 0.5625 -3 0.5625 0 0 Z " fill="#171717" transform="translate(463,183.4375)"/>
<path d="M0 0 C0.33 0 0.66 0 1 0 C1.07005469 27.14657228 1.12297085 54.29313103 1.15543652 81.43977547 C1.17091098 94.04419093 1.19201164 106.64855025 1.22631836 119.25292969 C1.25620289 130.23781397 1.27557079 141.2226576 1.28226548 152.2075814 C1.28617932 158.02499605 1.29538959 163.84229438 1.31719017 169.65967178 C1.33754027 175.13430863 1.34383674 180.60878115 1.33932304 186.08345222 C1.3401489 188.09341258 1.34612327 190.10337838 1.35761642 192.11330605 C1.37253731 194.85708108 1.368955 197.60023532 1.36076355 200.34402466 C1.36950207 201.1397558 1.3782406 201.93548695 1.38724393 202.75533116 C1.34281062 208.25989837 0.34340524 212.54826215 -3.60546875 216.6796875 C-5.0703125 217.78645833 -6.53515625 218.89322917 -8 220 C-7.6875 218.0625 -7.6875 218.0625 -7 216 C-6.01 215.67 -5.02 215.34 -4 215 C-4 214.34 -4 213.68 -4 213 C-3.34 213 -2.68 213 -2 213 C-2 211.35 -2 209.7 -2 208 C-1.34 208 -0.68 208 0 208 C0 139.36 0 70.72 0 0 Z " fill="#DDFDFE" transform="translate(37,34)"/>
<path d="M0 0 C3.88265681 0.72799815 5.46228253 1.50231129 8 4.5625 C8.79458276 8.64785475 8.48799864 12.22863704 7.0625 16.125 C4.1314024 18.16788621 1.68240062 18.17971827 -1.8359375 18.0078125 C-4 17.5625 -4 17.5625 -6.5625 15.5 C-8.37781677 11.79043965 -8.65622237 9.64566143 -8 5.5625 C-5.54999553 2.17572911 -4.13607554 0.77551416 0 0 Z " fill="#151515" transform="translate(527,183.4375)"/>
<path d="M0 0 C3.0625 1.875 3.0625 1.875 5 4 C5 4.66 5 5.32 5 6 C3.1875 6.6875 3.1875 6.6875 1 7 C0.54625 6.505 0.0925 6.01 -0.375 5.5 C-0.91125 5.005 -1.4475 4.51 -2 4 C-5.08333333 4 -5.08333333 4 -8 5 C-10.47342266 8.71013399 -10.38503486 10.61060262 -10 15 C-9.04826062 17.52040427 -9.04826062 17.52040427 -7 19 C-3.87376745 19.31900332 -1.82883747 19.41441874 1 18 C1.65213292 15.97536745 1.65213292 15.97536745 2 14 C0.35 14 -1.3 14 -3 14 C-3 13.01 -3 12.02 -3 11 C-0.03 11 2.94 11 6 11 C6.22976873 14.1708085 6.41462854 16.88199341 6 20 C3.15579445 23.1286261 0.04982717 23.25217476 -4 23.5 C-7.89812854 23.3896208 -8.813818 23.14058641 -12.0625 20.6875 C-15.38792041 16.07482007 -15.72733984 11.52778279 -15 6 C-11.10169126 -0.23729398 -6.99008528 -0.90389034 0 0 Z " fill="#0F0F0F" transform="translate(381,178)"/>
<path d="M0 0 C2.5625 1.875 2.5625 1.875 4 4 C4 4.66 4 5.32 4 6 C-0.875 5.125 -0.875 5.125 -2 4 C-3.66617115 3.95936168 -5.33388095 3.957279 -7 4 C-7 5.32 -7 6.64 -7 8 C-6.30132812 8.18175781 -5.60265625 8.36351562 -4.8828125 8.55078125 C-3.97273438 8.80214844 -3.06265625 9.05351562 -2.125 9.3125 C-0.76761719 9.67794922 -0.76761719 9.67794922 0.6171875 10.05078125 C3 11 3 11 5 14 C4.81127813 17.01954998 4.59407554 19.1855416 2.7890625 21.66015625 C-0.82861009 24.36946127 -5.71166505 23.59702867 -10 23 C-12.6875 21.125 -12.6875 21.125 -14 19 C-14 18.34 -14 17.68 -14 17 C-12.1875 16.3125 -12.1875 16.3125 -10 16 C-9.54625 16.474375 -9.0925 16.94875 -8.625 17.4375 C-6.9914698 19.34678731 -6.9914698 19.34678731 -3.8125 19.1875 C-2.884375 19.125625 -1.95625 19.06375 -1 19 C-1 17.68 -1 16.36 -1 15 C-2.17369141 14.60167969 -2.17369141 14.60167969 -3.37109375 14.1953125 C-4.88896484 13.66550781 -4.88896484 13.66550781 -6.4375 13.125 C-7.44683594 12.77695313 -8.45617187 12.42890625 -9.49609375 12.0703125 C-12 11 -12 11 -13 9 C-13.5605199 3.73111292 -13.5605199 3.73111292 -11.5625 1.125 C-7.71978055 -0.56204756 -4.12641985 -0.70414137 0 0 Z " fill="#141414" transform="translate(448,178)"/>
<path d="M0 0 C1.32 0 2.64 0 4 0 C4 3.3 4 6.6 4 10 C7.96 10 11.92 10 16 10 C16 6.7 16 3.4 16 0 C17.32 0 18.64 0 20 0 C20 7.59 20 15.18 20 23 C18.68 23 17.36 23 16 23 C16 19.7 16 16.4 16 13 C12.04 13 8.08 13 4 13 C4 16.3 4 19.6 4 23 C2.68 23 1.36 23 0 23 C0 15.41 0 7.82 0 0 Z " fill="#141414" transform="translate(454,219)"/>
<path d="M0 0 C0.33 0 0.66 0 1 0 C1.04666144 27.21566607 1.08196006 54.43132618 1.10362434 81.64702415 C1.11394952 94.28292551 1.1280335 106.91880206 1.15087891 119.5546875 C1.17077485 130.56443696 1.1837074 141.57416845 1.18817699 152.58393538 C1.19079082 158.41684353 1.19696009 164.24970029 1.21146011 170.08259201 C1.22498413 175.56704157 1.22923319 181.0514183 1.22621536 186.53588295 C1.22676786 188.55396863 1.23077601 190.57205663 1.23841095 192.59012794 C1.24829124 195.33519051 1.24599438 198.07997435 1.24050903 200.82504272 C1.24633472 201.63242524 1.2521604 202.43980775 1.25816262 203.27165639 C1.22824242 208.77175758 1.22824242 208.77175758 -1 211 C-1.33 210.01 -1.66 209.02 -2 208 C-1.505 207.01 -1.505 207.01 -1 206 C-0.89208855 203.30482533 -0.84509544 200.63479974 -0.84178162 197.93893433 C-0.83437465 196.67455337 -0.83437465 196.67455337 -0.82681805 195.38462937 C-0.81139014 192.5440193 -0.80306815 189.70343192 -0.79467773 186.86279297 C-0.78510337 184.83296507 -0.77509355 182.80313919 -0.76467896 180.77331543 C-0.737576 175.2488295 -0.71659568 169.72433497 -0.69667697 164.19981909 C-0.67485059 158.43154671 -0.64744556 152.66330096 -0.62062073 146.89505005 C-0.57064846 135.9657637 -0.52572649 125.0364626 -0.48259836 114.10714734 C-0.43326468 101.66717494 -0.37833224 89.22722927 -0.32291877 76.78728271 C-0.20902913 51.19154672 -0.10220535 25.59578512 0 0 Z " fill="#307DAC" transform="translate(38,37)"/>
<path d="M0 0 C3.93771664 0.26696384 5.06435596 0.40873895 7.6875 3.25 C8.078125 6.60546875 8.078125 6.60546875 7.9375 10.4375 C7.90140625 11.70980469 7.8653125 12.98210937 7.828125 14.29296875 C7.75851562 15.75669922 7.75851562 15.75669922 7.6875 17.25 C5.75244977 17.49900646 3.81424066 17.72356242 1.875 17.9375 C0.79605469 18.06511719 -0.28289063 18.19273437 -1.39453125 18.32421875 C-4.3125 18.25 -4.3125 18.25 -6.171875 16.92578125 C-7.8038093 14.52817915 -7.8084031 13.08373199 -7.3125 10.25 C-5.75 8.4375 -5.75 8.4375 -3.3125 7.25 C0.4375 7.0625 0.4375 7.0625 3.6875 7.25 C3.3575 6.26 3.0275 5.27 2.6875 4.25 C1.945 4.415 1.2025 4.58 0.4375 4.75 C-2.3125 5.25 -2.3125 5.25 -6.3125 5.25 C-3.91515319 0.29548326 -3.91515319 0.29548326 0 0 Z " fill="#131313" transform="translate(557.3125,224.75)"/>
<path d="M0 0 C2.9375 2.1875 2.9375 2.1875 5 5 C5 6.65 5 8.3 5 10 C1.04 10 -2.92 10 -7 10 C-6.67 10.99 -6.34 11.98 -6 13 C-5.0925 13 -4.185 13 -3.25 13 C-0.83333333 13 1.58333333 13 4 13 C3 16 3 16 0 18 C-3.95995829 18.60260235 -5.5233651 18.32121048 -8.875 16.0625 C-11.37758901 12.45582761 -11.68623228 10.39116756 -11.4140625 6.09375 C-11 4 -11 4 -9.4375 1.4375 C-6.00082919 -0.58925458 -3.92582814 -0.6198676 0 0 Z " fill="#1A1A1A" transform="translate(408,225)"/>
<path d="M0 0 C2.9375 2.1875 2.9375 2.1875 5 5 C5 6.65 5 8.3 5 10 C1.04 10 -2.92 10 -7 10 C-6.67 10.99 -6.34 11.98 -6 13 C-2.4780279 13.08004482 0.61981469 13.04005702 4 12 C3.625 13.9375 3.625 13.9375 3 16 C-0.45885058 17.72942529 -4.21777288 17.4710466 -8 17 C-10.0625 15.5625 -10.0625 15.5625 -11 13 C-11.62304044 8.64670464 -11.7644591 5.25371292 -9.4375 1.4375 C-6.00082919 -0.58925458 -3.92582814 -0.6198676 0 0 Z " fill="#1A1A1A" transform="translate(318,184)"/>
<path d="M0 0 C2.9375 2.1875 2.9375 2.1875 5 5 C5 6.65 5 8.3 5 10 C1.04 10 -2.92 10 -7 10 C-6.67 10.99 -6.34 11.98 -6 13 C-5.0925 13 -4.185 13 -3.25 13 C-0.83333333 13 1.58333333 13 4 13 C3 16 3 16 1 17 C-6.01599016 17.56580566 -6.01599016 17.56580566 -9.5 15.5625 C-11.73340143 11.74710589 -11.76726228 8.31090664 -11 4 C-8.21528417 -0.56693397 -5.09718974 -0.80481943 0 0 Z " fill="#161616" transform="translate(401,184)"/>
<path d="M0 0 C15.84 0 31.68 0 48 0 C46.68 1.32 45.36 2.64 44 4 C43.505 3.01 43.505 3.01 43 2 C29.14 1.67 15.28 1.34 1 1 C1 39.61 1 78.22 1 118 C0.67 118 0.34 118 0 118 C0 79.06 0 40.12 0 0 Z " fill="#2B79A7" transform="translate(198,21)"/>
<path d="M0 0 C0.99 0.66 1.98 1.32 3 2 C3 2.99 3 3.98 3 5 C-1.455 4.01 -1.455 4.01 -6 3 C-5.67 3.99 -5.34 4.98 -5 6 C-2.68152126 6.7166207 -0.34680297 7.38242027 2 8 C2.66 8.66 3.32 9.32 4 10 C3.8125 13 3.8125 13 3 16 C-0.7205836 18.48038907 -2.59796571 18.46337203 -7 18 C-9.4375 16.125 -9.4375 16.125 -11 14 C-11 13.34 -11 12.68 -11 12 C-9.68 12 -8.36 12 -7 12 C-7 12.66 -7 13.32 -7 14 C-4.69 14 -2.38 14 0 14 C-1.3006679 11.3986642 -2.30080022 11.35811992 -5 10.4375 C-8.91008174 9.08991826 -8.91008174 9.08991826 -10 8 C-10.25 5.0625 -10.25 5.0625 -10 2 C-6.31282562 -0.45811625 -4.35654296 -0.31118164 0 0 Z " fill="#272727" transform="translate(506,225)"/>
<path d="M0 0 C10.28010471 -0.4895288 10.28010471 -0.4895288 13.34375 1.59375 C15.55251544 4.80271111 15.40430061 6.89248471 15.25 10.75 C15.21390625 11.92046875 15.1778125 13.0909375 15.140625 14.296875 C15.07101562 15.63492188 15.07101562 15.63492188 15 17 C13.68 17 12.36 17 11 17 C10.67 13.04 10.34 9.08 10 5 C8.35 5 6.7 5 5 5 C4.67 8.96 4.34 12.92 4 17 C2.68 17 1.36 17 0 17 C0 11.39 0 5.78 0 0 Z " fill="#1D1D1D" transform="translate(409,184)"/>
<path d="M0 0 C1.32 0 2.64 0 4 0 C4.33 4.29 4.66 8.58 5 13 C6.65 12.67 8.3 12.34 10 12 C10.33 8.04 10.66 4.08 11 0 C12.32 0 13.64 0 15 0 C15 5.61 15 11.22 15 17 C5.0390625 17.29296875 5.0390625 17.29296875 2 17 C-0.49118953 13.2632157 -0.2065226 11.25548181 -0.125 6.8125 C-0.10695313 5.54019531 -0.08890625 4.26789063 -0.0703125 2.95703125 C-0.04710937 1.98121094 -0.02390625 1.00539062 0 0 Z " fill="#151515" transform="translate(482,184)"/>
<path d="M0 0 C0.99 0.66 1.98 1.32 3 2 C3 2.99 3 3.98 3 5 C-1.455 4.01 -1.455 4.01 -6 3 C-6 4.32 -6 5.64 -6 7 C-4.63875 6.9071875 -4.63875 6.9071875 -3.25 6.8125 C0.28982642 7.01672076 1.44931155 7.64551835 4 10 C3.6875 12.875 3.6875 12.875 3 16 C-0.7205836 18.48038907 -2.59796571 18.46337203 -7 18 C-9.4375 16 -9.4375 16 -11 14 C-9.4375 12.875 -9.4375 12.875 -7 12 C-3.25 12.875 -3.25 12.875 0 14 C0 13.01 0 12.02 0 11 C-1.918125 10.814375 -1.918125 10.814375 -3.875 10.625 C-7.75 10.25 -7.75 10.25 -10 8 C-10.35571424 5.22542896 -10.36405327 3.62103204 -8.9375 1.1875 C-5.93702602 -0.65150018 -3.43518387 -0.30671285 0 0 Z " fill="#1B1B1B" transform="translate(586,225)"/>
<path d="M0 0 C2 2 2 2 2 5 C-2.455 4.01 -2.455 4.01 -7 3 C-6.67 3.99 -6.34 4.98 -6 6 C-3.68152126 6.7166207 -1.34680297 7.38242027 1 8 C1.66 8.66 2.32 9.32 3 10 C2.75 13.0625 2.75 13.0625 2 16 C-0.32686453 17.16343227 -1.84721413 17.19895988 -4.4375 17.25 C-5.21996094 17.27578125 -6.00242187 17.3015625 -6.80859375 17.328125 C-9.47931509 16.92823089 -10.31977439 16.05300878 -12 14 C-10.68 13.34 -9.36 12.68 -8 12 C-8 12.66 -8 13.32 -8 14 C-6.02 13.67 -4.04 13.34 -2 13 C-4.6465335 10.3534665 -7.56221264 9.40058003 -11 8 C-11.1875 5.125 -11.1875 5.125 -11 2 C-6.93150591 -0.71232939 -4.83523216 -0.30699887 0 0 Z " fill="#171717" transform="translate(568,184)"/>
<path d="M0 0 C10.28010471 -0.4895288 10.28010471 -0.4895288 13.34375 1.59375 C15.55251544 4.80271111 15.40430061 6.89248471 15.25 10.75 C15.21390625 11.92046875 15.1778125 13.0909375 15.140625 14.296875 C15.07101562 15.63492188 15.07101562 15.63492188 15 17 C13.68 17 12.36 17 11 17 C10.67 13.04 10.34 9.08 10 5 C7.03 4.505 7.03 4.505 4 4 C3.67 8.29 3.34 12.58 3 17 C2.01 17 1.02 17 0 17 C0 11.39 0 5.78 0 0 Z " fill="#181818" transform="translate(539,184)"/>
<path d="M0 0 C0.99 0 1.98 0 3 0 C3 0.66 3 1.32 3 2 C3.99 1.34 4.98 0.68 6 0 C9.0625 -0.25 9.0625 -0.25 12 0 C14 2 14 2 14.1953125 5.4765625 C14.18201493 6.85950968 14.15816232 8.24238654 14.125 9.625 C14.11597656 10.33140625 14.10695313 11.0378125 14.09765625 11.765625 C14.07407603 13.51056098 14.03820461 15.25532295 14 17 C13.01 17 12.02 17 11 17 C10.67 13.04 10.34 9.08 10 5 C8.68 4.67 7.36 4.34 6 4 C4.18884044 5.81115956 4.61800552 8.61278227 4.4375 11.0625 C4.35371094 12.16722656 4.26992188 13.27195313 4.18359375 14.41015625 C4.12300781 15.26480469 4.06242187 16.11945313 4 17 C2.68 17 1.36 17 0 17 C0 11.39 0 5.78 0 0 Z " fill="#191919" transform="translate(428,225)"/>
<path d="M0 0 C3.68754757 0.49831724 5.60490662 1.10067643 8 4 C8.4125 3.34 8.825 2.68 9.25 2 C9.8275 1.34 10.405 0.68 11 0 C12.32 0 13.64 0 15 0 C14.566875 0.804375 14.566875 0.804375 14.125 1.625 C12.77435817 4.47635497 11.63452228 6.89084082 11 10 C12.78468339 12.77287937 12.78468339 12.77287937 15 15 C15 15.66 15 16.32 15 17 C11.31245243 16.50168276 9.39509338 15.89932357 7 13 C6.01 14.32 5.02 15.64 4 17 C2.68 16.67 1.36 16.34 0 16 C1.051875 14.6696875 1.051875 14.6696875 2.125 13.3125 C4.36687062 10.23375641 4.36687062 10.23375641 3.375 7.4375 C2.694375 6.2309375 2.694375 6.2309375 2 5 C1.33333333 3.33333333 0.66666667 1.66666667 0 0 Z " fill="#161616" transform="translate(324,184)"/>
<path d="M0 0 C1.32 0 2.64 0 4 0 C4 7.59 4 15.18 4 23 C-1 22 -1 22 -2.8359375 20.0390625 C-3.34382813 19.24242187 -3.85171875 18.44578125 -4.375 17.625 C-4.89835937 16.83351562 -5.42171875 16.04203125 -5.9609375 15.2265625 C-7 13 -7 13 -6 10 C-5.01 10 -4.02 10 -3 10 C-2.01 11.485 -2.01 11.485 -1 13 C-0.67 8.71 -0.34 4.42 0 0 Z " fill="#161616" transform="translate(299,178)"/>
<path d="M0 0 C6.74409027 -0.15223524 13.48773704 -0.25725034 20.2331543 -0.32958984 C22.52726804 -0.35974782 24.82126662 -0.40068116 27.11499023 -0.45263672 C30.41418872 -0.52549194 33.71186217 -0.55946693 37.01171875 -0.5859375 C38.03585373 -0.61690521 39.05998871 -0.64787292 40.11515808 -0.67977905 C47.11073007 -0.68307932 47.11073007 -0.68307932 49.79092407 1.37567139 C51.18676758 3.03662109 51.18676758 3.03662109 53 6 C52.401875 5.690625 51.80375 5.38125 51.1875 5.0625 C46.93181589 2.99545343 43.64542428 2.89498231 38.953125 2.9375 C38.26369812 2.94128662 37.57427124 2.94507324 36.86395264 2.94897461 C33.92094572 2.96526784 30.97807896 2.99325853 28.03515625 3.02050781 C25.88281919 3.0387317 23.73050562 3.05074348 21.578125 3.0625 C20.29325195 3.07410156 19.00837891 3.08570313 17.68457031 3.09765625 C14.01234225 3.00032712 10.61789889 2.5930599 7 2 C7 2.66 7 3.32 7 4 C3.68273845 3.42805835 2.27364177 2.42999536 0 0 Z " fill="#1573AF" transform="translate(26,21)"/>
<path d="M0 0 C-0.33 1.32 -0.66 2.64 -1 4 C-1.99 4 -2.98 4 -4 4 C-4 4.99 -4 5.98 -4 7 C-3.01 7 -2.02 7 -1 7 C-1 7.99 -1 8.98 -1 10 C-1.99 10 -2.98 10 -4 10 C-4 14.62 -4 19.24 -4 24 C-5.32 24 -6.64 24 -8 24 C-8 19.38 -8 14.76 -8 10 C-8.66 10 -9.32 10 -10 10 C-9.55090939 8.51800098 -9.09043436 7.03944764 -8.625 5.5625 C-8.36976563 4.73878906 -8.11453125 3.91507813 -7.8515625 3.06640625 C-6.29236133 -0.71715989 -3.66782264 -0.09652165 0 0 Z " fill="#191919" transform="translate(293,218)"/>
<path d="M0 0 C1.32 0 2.64 0 4 0 C4 1.65 4 3.3 4 5 C4.99 5 5.98 5 7 5 C7 6.32 7 7.64 7 9 C6.01 9 5.02 9 4 9 C4 12.3 4 15.6 4 19 C4.99 19 5.98 19 7 19 C7 19.99 7 20.98 7 22 C5.00045254 22.04254356 2.99958364 22.04080783 1 22 C0 21 0 21 -0.09765625 18.05859375 C-0.08605469 16.86363281 -0.07445312 15.66867188 -0.0625 14.4375 C-0.05347656 13.23996094 -0.04445313 12.04242188 -0.03515625 10.80859375 C-0.02355469 9.88175781 -0.01195312 8.95492187 0 8 C-0.99 8 -1.98 8 -3 8 C-3 7.01 -3 6.02 -3 5 C-2.01 5 -1.02 5 0 5 C0 3.35 0 1.7 0 0 Z " fill="#1A1A1A" transform="translate(343,179)"/>
<path d="M0 0 C1.32 0 2.64 0 4 0 C4 1.65 4 3.3 4 5 C4.99 5 5.98 5 7 5 C7 5.99 7 6.98 7 8 C6.01 8 5.02 8 4 8 C4 11.63 4 15.26 4 19 C4.99 19 5.98 19 7 19 C7 19.99 7 20.98 7 22 C5.00045254 22.04254356 2.99958364 22.04080783 1 22 C0 21 0 21 -0.09765625 18.05859375 C-0.08605469 16.86363281 -0.07445312 15.66867188 -0.0625 14.4375 C-0.05347656 13.23996094 -0.04445313 12.04242188 -0.03515625 10.80859375 C-0.02355469 9.88175781 -0.01195312 8.95492187 0 8 C-0.99 8 -1.98 8 -3 8 C-3 7.01 -3 6.02 -3 5 C-2.01 5 -1.02 5 0 5 C0 3.35 0 1.7 0 0 Z " fill="#151515" transform="translate(502,179)"/>
<path d="M0 0 C1.32 0 2.64 0 4 0 C4 1.32 4 2.64 4 4 C5.32 4 6.64 4 8 4 C8 4.99 8 5.98 8 7 C6.68 7 5.36 7 4 7 C4 10.63 4 14.26 4 18 C5.32 18 6.64 18 8 18 C8 18.99 8 19.98 8 21 C5.125 21.125 5.125 21.125 2 21 C0 19 0 19 -0.1953125 16.1796875 C-0.17210937 15.08914062 -0.14890625 13.99859375 -0.125 12.875 C-0.10695313 11.77929688 -0.08890625 10.68359375 -0.0703125 9.5546875 C-0.04710937 8.71164063 -0.02390625 7.86859375 0 7 C-0.66 7 -1.32 7 -2 7 C-2 6.01 -2 5.02 -2 4 C-1.34 4 -0.68 4 0 4 C0 2.68 0 1.36 0 0 Z " fill="#161616" transform="translate(540,221)"/>
<path d="M0 0 C3.91436658 -0.4551589 5.60138447 -0.26291663 8.9375 1.9375 C11.47993966 5.71263768 11.28312279 7.55112553 10.6875 11.9140625 C9.88164418 14.35910232 9.01126354 15.41419605 7 17 C4 17.875 4 17.875 1 18 C-0.875 16.5625 -0.875 16.5625 -2 15 C0.31 14.34 2.62 13.68 5 13 C5.67673447 9.59679066 5.67673447 9.59679066 6 6 C5.34 5.34 4.68 4.68 4 4 C2.68 4 1.36 4 0 4 C0 2.68 0 1.36 0 0 Z " fill="#161616" transform="translate(518,225)"/>
<path d="M0 0 C1.32 0 2.64 0 4 0 C4 0.66 4 1.32 4 2 C4.66 2 5.32 2 6 2 C6 1.34 6 0.68 6 0 C7.32 0 8.64 0 10 0 C10 1.32 10 2.64 10 4 C8.68 4.33 7.36 4.66 6 5 C5.67 8.96 5.34 12.92 5 17 C3.35 17 1.7 17 0 17 C0 11.39 0 5.78 0 0 Z " fill="#2E2E2E" transform="translate(312,225)"/>
<path d="M0 0 C1.32 0 2.64 0 4 0 C4 7.92 4 15.84 4 24 C2.68 24 1.36 24 0 24 C0 16.08 0 8.16 0 0 Z " fill="#1F1F1F" transform="translate(569,218)"/>
<path d="M0 0 C1.32 0 2.64 0 4 0 C4 7.59 4 15.18 4 23 C2.68 23 1.36 23 0 23 C0 15.41 0 7.82 0 0 Z " fill="#1B1B1B" transform="translate(474,178)"/>
<path d="M0 0 C6.9234133 -0.02531927 13.84681469 -0.04285389 20.77026367 -0.05493164 C23.126388 -0.05996575 25.4825092 -0.06679346 27.83862305 -0.07543945 C31.2218503 -0.0875453 34.60503632 -0.09323749 37.98828125 -0.09765625 C39.57277824 -0.10539818 39.57277824 -0.10539818 41.18928528 -0.11329651 C42.17007553 -0.11337204 43.15086578 -0.11344757 44.16137695 -0.11352539 C45.45710381 -0.11685631 45.45710381 -0.11685631 46.77900696 -0.12025452 C50.04781082 0.05673317 51.73476326 0.76507603 54.1875 2.9375 C56 5 56 5 56 7 C58.475 7.495 58.475 7.495 61 8 C60.67 9.32 60.34 10.64 60 12 C55.70078617 10.56692872 53.0878816 7.56611866 50.52050781 3.87011719 C46.42949604 0.83474813 42.0715683 1.39654821 37.109375 1.390625 C36.04962463 1.37408875 34.98987427 1.35755249 33.89801025 1.34051514 C30.51528169 1.29195445 27.13300295 1.27064563 23.75 1.25 C21.45570644 1.22184717 19.1614339 1.19192072 16.8671875 1.16015625 C11.24487355 1.08619345 5.62268653 1.03459821 0 1 C0 0.67 0 0.34 0 0 Z " fill="#BDEDFD" transform="translate(26,20)"/>
<path d="M0 0 C0.99 0 1.98 0 3 0 C3 1.32 3 2.64 3 4 C1.68 4.33 0.36 4.66 -1 5 C-1.33 9.29 -1.66 13.58 -2 18 C-3.32 18 -4.64 18 -6 18 C-6 12.39 -6 6.78 -6 1 C-4.35 1 -2.7 1 -1 1 C-0.67 0.67 -0.34 0.34 0 0 Z " fill="#1A1A1A" transform="translate(422,225)"/>
<path d="M0 0 C0.639375 0.2475 1.27875 0.495 1.9375 0.75 C2.9275 1.08 3.9175 1.41 4.9375 1.75 C4.5625 4.1875 4.5625 4.1875 3.9375 6.75 C2.9475 7.245 2.9475 7.245 1.9375 7.75 C1.9375 8.74 1.9375 9.73 1.9375 10.75 C-2.51186709 11.11075949 -2.51186709 11.11075949 -4.875 9.5625 C-6.50302002 7.07762734 -6.57225499 5.66288568 -6.0625 2.75 C-4.02753169 0.56967681 -3.02293699 -0.3664166 0 0 Z " fill="#161616" transform="translate(556.0625,232.25)"/>
<path d="M0 0 C4.75 0.75 4.75 0.75 7 3 C6.42307692 9.57692308 6.42307692 9.57692308 5 11 C2.5625 11.25 2.5625 11.25 0 11 C-2.1642235 7.75366476 -2.37569856 6.75698557 -2 3 C-1.34 2.01 -0.68 1.02 0 0 Z " fill="#E6E6E6" transform="translate(299,228)"/>
<path d="M0 0 C1.9375 0.8125 1.9375 0.8125 3.9375 2.8125 C3.36057692 9.38942308 3.36057692 9.38942308 1.9375 10.8125 C-0.5 11 -0.5 11 -3.0625 10.8125 C-5.0625 8.8125 -5.0625 8.8125 -5.375 5.875 C-5.0625 2.8125 -5.0625 2.8125 -3.8125 0.875 C-2.0625 -0.1875 -2.0625 -0.1875 0 0 Z " fill="#E6E6E6" transform="translate(521.0625,228.1875)"/>
<path d="M0 0 C1.9375 0.8125 1.9375 0.8125 3.9375 2.8125 C4.32036803 6.54546326 4.08665785 7.58876323 1.9375 10.8125 C-0.5625 11.125 -0.5625 11.125 -3.0625 10.8125 C-5.0625 8.8125 -5.0625 8.8125 -5.375 5.875 C-5.0625 2.8125 -5.0625 2.8125 -3.8125 0.875 C-2.0625 -0.1875 -2.0625 -0.1875 0 0 Z " fill="#E6E6E6" transform="translate(464.0625,187.1875)"/>
<path d="M0 0 C1.9375 0.8125 1.9375 0.8125 3.9375 2.8125 C3.36057692 9.38942308 3.36057692 9.38942308 1.9375 10.8125 C-0.5 11.0625 -0.5 11.0625 -3.0625 10.8125 C-5.21752531 7.57996204 -5.53106135 6.56099077 -5.0625 2.8125 C-3.48626085 0.44814127 -2.87976021 -0.26179638 0 0 Z " fill="#E9E9E9" transform="translate(386.0625,228.1875)"/>
<path d="M0 0 C4.55555556 0.55555556 4.55555556 0.55555556 6 2 C6.1875 5.4375 6.1875 5.4375 6 9 C5.34 9.66 4.68 10.32 4 11 C-0.55555556 10.44444444 -0.55555556 10.44444444 -2 9 C-2.1875 5.5625 -2.1875 5.5625 -2 2 C-1.34 1.34 -0.68 0.68 0 0 Z " fill="#EFEFEF" transform="translate(483,228)"/>
<path d="M0 0 C4.55555556 0.55555556 4.55555556 0.55555556 6 2 C6.1875 5.4375 6.1875 5.4375 6 9 C5.34 9.66 4.68 10.32 4 11 C-0.55555556 10.44444444 -0.55555556 10.44444444 -2 9 C-2.1875 5.5625 -2.1875 5.5625 -2 2 C-1.34 1.34 -0.68 0.68 0 0 Z " fill="#EDEDED" transform="translate(365,228)"/>
<path d="M0 0 C0.66 0.33 1.32 0.66 2 1 C1.34 2.32 0.68 3.64 0 5 C16.5 4.67 33 4.34 50 4 C50.495 4.99 50.495 4.99 51 6 C32.52 6 14.04 6 -5 6 C-3.35 4.02 -1.7 2.04 0 0 Z " fill="#2F77A0" transform="translate(34,249)"/>
<path d="M0 0 C1.99954746 -0.04254356 4.00041636 -0.04080783 6 0 C7 1 7 1 7.1875 4.4375 C7 8 7 8 5 10 C2.375 9.625 2.375 9.625 0 9 C-1.125 2.25 -1.125 2.25 0 0 Z " fill="#F5F5F5" transform="translate(524,188)"/>
<path d="M0 0 C1.32 0 2.64 0 4 0 C4 5.61 4 11.22 4 17 C2.68 17 1.36 17 0 17 C-0.98844951 13.05352382 -0.96191905 9.72607036 -0.5625 5.6875 C-0.46066406 4.61886719 -0.35882813 3.55023438 -0.25390625 2.44921875 C-0.17011719 1.64097656 -0.08632813 0.83273438 0 0 Z " fill="#1C1C1C" transform="translate(493,184)"/>
<path d="M0 0 C1.32 0 2.64 0 4 0 C4 5.61 4 11.22 4 17 C2.68 17 1.36 17 0 17 C0 11.39 0 5.78 0 0 Z " fill="#151515" transform="translate(512,184)"/>
<path d="M0 0 C2.875 -0.125 2.875 -0.125 6 0 C8 2 8 2 8.1953125 5.4765625 C8.18201493 6.85950968 8.15816232 8.24238654 8.125 9.625 C8.11597656 10.33140625 8.10695313 11.0378125 8.09765625 11.765625 C8.07407603 13.51056098 8.03820461 15.25532295 8 17 C7.01 17 6.02 17 5 17 C4.67 13.04 4.34 9.08 4 5 C1.525 4.01 1.525 4.01 -1 3 C-0.67 2.01 -0.34 1.02 0 0 Z " fill="#070707" transform="translate(434,225)"/>
<path d="M0 0 C0.99 0 1.98 0 3 0 C3 0.99 3 1.98 3 3 C3.66 3 4.32 3 5 3 C4.67 7.62 4.34 12.24 4 17 C2.68 17 1.36 17 0 17 C0 11.39 0 5.78 0 0 Z " fill="#151515" transform="translate(409,184)"/>
<path d="M0 0 C6.75 1.125 6.75 1.125 9 4 C7.35 4 5.7 4 4 4 C3.67 8.29 3.34 12.58 3 17 C2.01 17 1.02 17 0 17 C0 11.39 0 5.78 0 0 Z " fill="#0F0F0F" transform="translate(539,184)"/>
<path d="M0 0 C2.475 0.495 2.475 0.495 5 1 C5.495 2.485 5.495 2.485 6 4 C-10.17 4 -26.34 4 -43 4 C-43 3.67 -43 3.34 -43 3 C-28.81 3 -14.62 3 0 3 C0 2.01 0 1.02 0 0 Z " fill="#136EAA" transform="translate(77,250)"/>
<path d="M0 0 C0.99 0.66 1.98 1.32 3 2 C3 2.99 3 3.98 3 5 C-1.455 4.01 -1.455 4.01 -6 3 C-5.814375 3.78375 -5.62875 4.5675 -5.4375 5.375 C-5 8 -5 8 -6 10 C-7.32 9.34 -8.64 8.68 -10 8 C-10.1875 5.125 -10.1875 5.125 -10 2 C-6.31282562 -0.45811625 -4.35654296 -0.31118164 0 0 Z " fill="#1E1E1E" transform="translate(506,225)"/>
<path d="M0 0 C0.66 0 1.32 0 2 0 C2.165 0.78375 2.33 1.5675 2.5 2.375 C3.70396899 5.1093471 3.70396899 5.1093471 5.9140625 5.77734375 C7.92516699 6.26413052 9.962638 6.63853255 12 7 C12 7.99 12 8.98 12 10 C8.65747276 10.07427838 6.1964086 10.06546953 3 9 C2.01 9.33 1.02 9.66 0 10 C-1 9 -1 9 -1.1328125 7.1875 C-1.13023437 6.465625 -1.12765625 5.74375 -1.125 5 C-1.12757813 4.278125 -1.13015625 3.55625 -1.1328125 2.8125 C-1 1 -1 1 0 0 Z " fill="#F2F2F2" transform="translate(574,229)"/>
<path d="M0 0 C3.4375 0.5 3.4375 0.5 5.375 2 C5.725625 2.495 6.07625 2.99 6.4375 3.5 C5.7775 3.5 5.1175 3.5 4.4375 3.5 C4.1075 4.16 3.7775 4.82 3.4375 5.5 C1.7875 5.17 0.1375 4.84 -1.5625 4.5 C-2.5525 6.81 -3.5425 9.12 -4.5625 11.5 C-5.5525 11.5 -6.5425 11.5 -7.5625 11.5 C-7.90225517 7.84763197 -7.77080209 5.88327585 -6 2.625 C-3.5625 0.5 -3.5625 0.5 0 0 Z " fill="#0E0E0E" transform="translate(366.5625,224.5)"/>
<path d="M0 0 C0.99 0.66 1.98 1.32 3 2 C2.34 2 1.68 2 1 2 C0.43788686 7.32065759 0.43788686 7.32065759 2.5 11.875 C2.995 12.24625 3.49 12.6175 4 13 C4 13.66 4 14.32 4 15 C1.06832781 14.68306247 -0.58982661 14.36774166 -2.8125 12.375 C-4.4786893 9.0426214 -4.46722492 6.67105292 -4 3 C-2 1.0625 -2 1.0625 0 0 Z " fill="#0E0E0E" transform="translate(459,186)"/>
<path d="M0 0 C3.625 0.375 3.625 0.375 6.0625 2.0625 C7.625 4.375 7.625 4.375 7.625 9.375 C4.325 9.375 1.025 9.375 -2.375 9.375 C-2.375 9.045 -2.375 8.715 -2.375 8.375 C-0.065 8.375 2.245 8.375 4.625 8.375 C3.965 7.055 3.305 5.735 2.625 4.375 C0.645 4.705 -1.335 5.035 -3.375 5.375 C-4.035 4.385 -4.695 3.395 -5.375 2.375 C-3.375 0.375 -3.375 0.375 0 0 Z " fill="#0D0D0D" transform="translate(314.375,183.625)"/>
<path d="M0 0 C0.66 1.32 1.32 2.64 2 4 C-13.84 4 -29.68 4 -46 4 C-46 3.34 -46 2.68 -46 2 C-31.15 2 -16.3 2 -1 2 C-0.67 1.34 -0.34 0.68 0 0 Z " fill="#0F6DAA" transform="translate(240,250)"/>
<path d="M0 0 C2 1 2 1 2.8515625 3.28515625 C3.10679687 4.20167969 3.36203125 5.11820313 3.625 6.0625 C3.88539063 6.98160156 4.14578125 7.90070313 4.4140625 8.84765625 C4.60742188 9.55792969 4.80078125 10.26820313 5 11 C2.03 11 -0.94 11 -4 11 C-3.52269162 9.5410574 -3.04308958 8.08286504 -2.5625 6.625 C-2.29566406 5.81289062 -2.02882813 5.00078125 -1.75390625 4.1640625 C-1 2 -1 2 0 0 Z " fill="#DDDDDD" transform="translate(422,127)"/>
<path d="M0 0 C15.84 0 31.68 0 48 0 C48 0.33 48 0.66 48 1 C46.73816895 1.01981934 45.47633789 1.03963867 44.17626953 1.06005859 C39.50581508 1.13598765 34.8356774 1.22472412 30.16552734 1.31738281 C28.14215334 1.35572521 26.11870994 1.39056871 24.09521484 1.421875 C21.19082797 1.46741169 18.28692106 1.52542409 15.3828125 1.5859375 C14.47443634 1.59748871 13.56606018 1.60903992 12.63015747 1.62094116 C11.36907669 1.6507457 11.36907669 1.6507457 10.08251953 1.68115234 C9.34083527 1.69447601 8.599151 1.70779968 7.83499146 1.7215271 C5.7526636 1.85199729 5.7526636 1.85199729 4 4 C2.68 2.68 1.36 1.36 0 0 Z " fill="#2F78A2" transform="translate(26,21)"/>
<path d="M0 0 C0.33 0.66 0.66 1.32 1 2 C2.85205414 2.5676272 2.85205414 2.5676272 5 3 C6.42366111 3.50139889 7.84062729 4.02224046 9.25 4.5625 C9.95640625 4.83191406 10.6628125 5.10132813 11.390625 5.37890625 C11.92171875 5.58386719 12.4528125 5.78882813 13 6 C13 6.66 13 7.32 13 8 C10.69 8 8.38 8 6 8 C6 7.34 6 6.68 6 6 C3.69 6.66 1.38 7.32 -1 8 C-0.67 5.36 -0.34 2.72 0 0 Z " fill="#ECECEC" transform="translate(493,231)"/>
<path d="M0 0 C0.99 0 1.98 0 3 0 C3 5.28 3 10.56 3 16 C2.01 16 1.02 16 0 16 C0 10.72 0 5.44 0 0 Z " fill="#000000" transform="translate(532,226)"/>
<path d="M0 0 C3.63 0 7.26 0 11 0 C11 1.32 11 2.64 11 4 C7.37 4 3.74 4 0 4 C0 2.68 0 1.36 0 0 Z " fill="#222222" transform="translate(352,190)"/>
<path d="M0 0 C4.88049925 3.9419417 9.0580583 8.11950075 13 13 C11.68 13 10.36 13 9 13 C9 12.01 9 11.02 9 10 C7.35 10 5.7 10 4 10 C2.66666667 6.66666667 1.33333333 3.33333333 0 0 Z " fill="#3381AE" transform="translate(136,82)"/>
<path d="M0 0 C3 0 3 0 5.1875 1.875 C7 4 7 4 7 6 C8.65 6.33 10.3 6.66 12 7 C11.67 8.32 11.34 9.64 11 11 C7.26790586 9.75596862 5.69291525 7.82756102 3 5 C2.401875 4.443125 1.80375 3.88625 1.1875 3.3125 C0 2 0 2 0 0 Z " fill="#D0ECF6" transform="translate(75,21)"/>
<path d="M0 0 C2.4375 0.375 2.4375 0.375 5 1 C5.33 1.66 5.66 2.32 6 3 C6.66 3.2475 7.32 3.495 8 3.75 C10 5 10 5 10.75 8.125 C10.87375 9.548125 10.87375 9.548125 11 11 C6.86378916 7.6189962 3.18683431 4.33409466 0 0 Z " fill="#DCF4FA" transform="translate(86,32)"/>
<path d="M0 0 C3.63 0 7.26 0 11 0 C9.375 2 9.375 2 7 4 C3.75 4.25 3.75 4.25 1 4 C0.67 2.68 0.34 1.36 0 0 Z " fill="#F1F1F1" transform="translate(401,235)"/>
<path d="M0 0 C3.68069887 1.53643852 5.98775204 3.78150945 8.75 6.625 C9.54921875 7.44226562 10.3484375 8.25953125 11.171875 9.1015625 C12.07679687 10.04128906 12.07679687 10.04128906 13 11 C12.34 11.66 11.68 12.32 11 13 C10.67 12.01 10.34 11.02 10 10 C9.443125 9.731875 8.88625 9.46375 8.3125 9.1875 C4.96235837 7.467157 2.37574493 4.91424712 0 2 C0 1.34 0 0.68 0 0 Z " fill="#307EAC" transform="translate(84,32)"/>
<path d="M0 0 C8.58 0 17.16 0 26 0 C24.68 1.32 23.36 2.64 22 4 C21.67 3.34 21.34 2.68 21 2 C14.07 1.67 7.14 1.34 0 1 C0 0.67 0 0.34 0 0 Z " fill="#307FA9" transform="translate(220,21)"/>
<path d="M0 0 C0.33 0 0.66 0 1 0 C1.31571333 5.26188885 0.89914347 8.55464669 -2 13 C-3.91062716 14.84742576 -5.87152678 16.39182024 -8 18 C-7.6875 16.0625 -7.6875 16.0625 -7 14 C-6.01 13.67 -5.02 13.34 -4 13 C-4 12.34 -4 11.68 -4 11 C-3.34 11 -2.68 11 -2 11 C-2 9.35 -2 7.7 -2 6 C-1.34 6 -0.68 6 0 6 C0 4.02 0 2.04 0 0 Z " fill="#D5F5FB" transform="translate(37,236)"/>
<path d="M0 0 C6.0546875 -0.1953125 6.0546875 -0.1953125 8 0 C8.66 0.66 9.32 1.32 10 2 C6.5647952 4.29013653 5.014669 4.17842973 1 4 C0.67 2.68 0.34 1.36 0 0 Z " fill="#EAEAEA" transform="translate(311,194)"/>
<path d="M0 0 C2.64 0 5.28 0 8 0 C7.67 1.32 7.34 2.64 7 4 C5.02 4 3.04 4 1 4 C0.67 2.68 0.34 1.36 0 0 Z " fill="#EFEFEF" transform="translate(394,194)"/>
<path d="M0 0 C1.134375 0.020625 2.26875 0.04125 3.4375 0.0625 C1.30639399 3.25915902 -0.15579487 4.40069262 -3.5625 6.0625 C-4.5525 5.7325 -5.5425 5.4025 -6.5625 5.0625 C-4.14811644 0.07277397 -4.14811644 0.07277397 0 0 Z " fill="#1C1C1C" transform="translate(557.5625,224.9375)"/>
<path d="M0 0 C0.66386719 0.15339844 1.32773437 0.30679687 2.01171875 0.46484375 C5.60155922 1.10773021 9.17795419 1.35033991 12.8125 1.5625 C13.85180664 1.62727539 13.85180664 1.62727539 14.91210938 1.69335938 C16.60788686 1.79861453 18.30392052 1.89972863 20 2 C20 2.33 20 2.66 20 3 C15.38 3 10.76 3 6 3 C5.67 3.66 5.34 4.32 5 5 C3.35 3.35 1.7 1.7 0 0 Z " fill="#EAF6F7" transform="translate(20,17)"/>
<path d="M0 0 C1.67542976 0.28604898 3.34385343 0.61781233 5 1 C5 1.99 5 2.98 5 4 C2.36 4.33 -0.28 4.66 -3 5 C-1.125 1.125 -1.125 1.125 0 0 Z " fill="#E8E8E8" transform="translate(556,228)"/>
<path d="M0 0 C1.65 0.33 3.3 0.66 5 1 C5.33 1.99 5.66 2.98 6 4 C3.36 4 0.72 4 -2 4 C-1.34 2.68 -0.68 1.36 0 0 Z " fill="#E8E8E8" transform="translate(403,228)"/>
<path d="M0 0 C4.55384615 -0.36923077 4.55384615 -0.36923077 6.8125 1.5 C7.204375 1.995 7.59625 2.49 8 3 C7.34 3.66 6.68 4.32 6 5 C4.02 4.34 2.04 3.68 0 3 C0 2.01 0 1.02 0 0 Z " fill="#DBDBDB" transform="translate(561,187)"/>
<path d="M0 0 C1.65 0.33 3.3 0.66 5 1 C5.33 1.99 5.66 2.98 6 4 C3.36 4 0.72 4 -2 4 C-1.34 2.68 -0.68 1.36 0 0 Z " fill="#DDDDDD" transform="translate(396,187)"/>
<path d="M0 0 C1.65 0.33 3.3 0.66 5 1 C5.33 1.99 5.66 2.98 6 4 C3.36 4 0.72 4 -2 4 C-1.34 2.68 -0.68 1.36 0 0 Z " fill="#DCDCDC" transform="translate(313,187)"/>
<path d="M0 0 C2.64 0 5.28 0 8 0 C7.67 1.32 7.34 2.64 7 4 C4.69 3.67 2.38 3.34 0 3 C0 2.01 0 1.02 0 0 Z " fill="#272727" transform="translate(412,184)"/>
<path d="M0 0 C2.375 0.25 2.375 0.25 5 1 C6.3125 3.0625 6.3125 3.0625 7 5 C5.68 5.33 4.36 5.66 3 6 C0 2.25 0 2.25 0 0 Z " fill="#1F1F1F" transform="translate(324,184)"/>
<path d="M0 0 C2.33944736 0.28730055 4.6739143 0.61936779 7 1 C7 1.99 7 2.98 7 4 C4.125 4.1875 4.125 4.1875 1 4 C0.34 3.01 -0.32 2.02 -1 1 C-0.67 0.67 -0.34 0.34 0 0 Z " fill="#EBEBEB" transform="translate(579,235)"/>
<path d="M0 0 C1.98 0 3.96 0 6 0 C5.67 1.32 5.34 2.64 5 4 C3.02 4 1.04 4 -1 4 C-0.67 2.68 -0.34 1.36 0 0 Z " fill="#ECECEC" transform="translate(555,235)"/>
<path d="M0 0 C0.33 0 0.66 0 1 0 C1 5.28 1 10.56 1 16 C0.67 16 0.34 16 0 16 C-0.22786458 14.01432292 -0.45572917 12.02864583 -0.68359375 10.04296875 C-0.97170735 7.80603607 -0.97170735 7.80603607 -2 5 C-1.0625 2.3125 -1.0625 2.3125 0 0 Z " fill="#BDBDBD" transform="translate(351,226)"/>
<path d="M0 0 C0 0.99 0 1.98 0 3 C-1.98 3 -3.96 3 -6 3 C-6 2.34 -6 1.68 -6 1 C-6.66 0.67 -7.32 0.34 -8 0 C-5.13822943 -1.43088528 -3.06624227 -0.59991697 0 0 Z " fill="#ECECEC" transform="translate(566,195)"/>
<path d="M0 0 C1.12894876 0.93274109 2.25300876 1.87140122 3.375 2.8125 C4.00148438 3.33457031 4.62796875 3.85664062 5.2734375 4.39453125 C7 6 7 6 9 9 C5.45529741 8.70460812 4.21784705 8.22373481 1.6875 5.625 C0 3 0 3 0 0 Z " fill="#D9F5FC" transform="translate(89,87)"/>
<path d="M0 0 C4.55384615 -0.36923077 4.55384615 -0.36923077 6.8125 1.5 C7.204375 1.995 7.59625 2.49 8 3 C5.69 3.33 3.38 3.66 1 4 C0.67 2.68 0.34 1.36 0 0 Z " fill="#E7E6E7" transform="translate(500,228)"/>
<path d="M0 0 C0.2475 0.639375 0.495 1.27875 0.75 1.9375 C1.78364885 4.18476569 1.78364885 4.18476569 3.9375 4.5 C4.618125 4.665 5.29875 4.83 6 5 C7.75 7.0625 7.75 7.0625 9 9 C8.67 9.66 8.34 10.32 8 11 C4.7 8.03 1.4 5.06 -2 2 C-1.34 1.34 -0.68 0.68 0 0 Z " fill="#CEEEF8" transform="translate(158,100)"/>
<path d="M0 0 C2.31 0 4.62 0 7 0 C6.67 1.32 6.34 2.64 6 4 C6.66 4.33 7.32 4.66 8 5 C7.67 5.99 7.34 6.98 7 8 C5.83035398 6.8572081 4.66435444 5.71068285 3.5 4.5625 C2.8503125 3.92441406 2.200625 3.28632812 1.53125 2.62890625 C0 1 0 1 0 0 Z " fill="#E3F6FB" transform="translate(139,84)"/>
<path d="M0 0 C2.64 0.66 5.28 1.32 8 2 C8 3.98 8 5.96 8 8 C6.85073734 7.04578192 5.70569459 6.08647955 4.5625 5.125 C3.92441406 4.59132813 3.28632812 4.05765625 2.62890625 3.5078125 C1 2 1 2 0 0 Z " fill="#D5F0F8" transform="translate(104,50)"/>
<path d="M0 0 C2.35953094 2.35953094 2.49141413 3.77895617 3 7 C2.34 7 1.68 7 1 7 C1 9.97 1 12.94 1 16 C0.67 16 0.34 16 0 16 C0 10.72 0 5.44 0 0 Z " fill="#BCBCBC" transform="translate(336,226)"/>
<path d="M0 0 C6.625 -0.25 6.625 -0.25 10 2 C10 2.99 10 3.98 10 5 C8.0625 4.6875 8.0625 4.6875 6 4 C5.67 3.01 5.34 2.02 5 1 C3.35 1 1.7 1 0 1 C0 0.67 0 0.34 0 0 Z " fill="#252525" transform="translate(579,225)"/>
<path d="M0 0 C0 3.70551485 -0.47131891 5.40310199 -2.9375 8.1875 C-5 10 -5 10 -7 10 C-5.6062718 5.56541027 -3.39417765 3.12621626 0 0 Z " fill="#CBEEF7" transform="translate(245,22)"/>
<path d="M0 0 C2 0.75 2 0.75 5 2.75 C4.05125 2.87375 3.1025 2.9975 2.125 3.125 C-1.08667191 3.46687177 -1.08667191 3.46687177 -3 5.75 C-3 4.76 -3 3.77 -3 2.75 C-3.66 2.42 -4.32 2.09 -5 1.75 C-2 -0.25 -2 -0.25 0 0 Z " fill="#333333" transform="translate(556,232.25)"/>
<path d="M0 0 C6.52307692 -0.36923077 6.52307692 -0.36923077 8.9375 1.5 C9.288125 1.995 9.63875 2.49 10 3 C9.01 3.66 8.02 4.32 7 5 C3.535 3.02 3.535 3.02 0 1 C0 0.67 0 0.34 0 0 Z " fill="#1C1C1C" transform="translate(394,184)"/>
<path d="M0 0 C2.475 0.495 2.475 0.495 5 1 C5 1.66 5 2.32 5 3 C5.66 3 6.32 3 7 3 C7.33 3.99 7.66 4.98 8 6 C5 6 5 6 3.61328125 4.6875 C2.40885417 3.125 1.20442708 1.5625 0 0 Z " fill="#3B89B8" transform="translate(104,101)"/>
<path d="M0 0 C1.65 0 3.3 0 5 0 C5.33 0.66 5.66 1.32 6 2 C5.67 2.66 5.34 3.32 5 4 C3.35 4 1.7 4 0 4 C0 2.68 0 1.36 0 0 Z " fill="#D9D9D9" transform="translate(580,228)"/>
<path d="M0 0 C1.98 0.495 1.98 0.495 4 1 C3.67 2.32 3.34 3.64 3 5 C1.68 4.67 0.36 4.34 -1 4 C-0.67 2.68 -0.34 1.36 0 0 Z " fill="#3C3C3C" transform="translate(532,218)"/>
<path d="M0 0 C2.31 1.65 4.62 3.3 7 5 C4 6 4 6 1 5 C0.67 5.66 0.34 6.32 0 7 C0 4.69 0 2.38 0 0 Z " fill="#E0F7FC" transform="translate(78,77)"/>
<path d="M0 0 C1.32 0 2.64 0 4 0 C3.42647107 3.87132028 1.51295648 6.08172796 -1 9 C-1 7.35 -1 5.7 -1 4 C-0.34 4 0.32 4 1 4 C0.67 2.68 0.34 1.36 0 0 Z " fill="#1677AA" transform="translate(238,23)"/>
<path d="M0 0 C3.16115776 1.36983503 3.9927092 1.9890638 6 5 C4.35 5.33 2.7 5.66 1 6 C0.67 4.02 0.34 2.04 0 0 Z " fill="#2F84BA" transform="translate(159,105)"/>
<path d="M0 0 C2.31 0.33 4.62 0.66 7 1 C7 1.99 7 2.98 7 4 C3.73045798 3.43628586 2.17424117 2.50037734 0 0 Z " fill="#131313" transform="translate(502,226)"/>
<path d="M0 0 C0.66 0 1.32 0 2 0 C2 1.98 2 3.96 2 6 C0.68 5.67 -0.64 5.34 -2 5 C-1.34 3.35 -0.68 1.7 0 0 Z " fill="#080808" transform="translate(403,187)"/>
<path d="M0 0 C0.66 0.33 1.32 0.66 2 1 C0.515 3.475 0.515 3.475 -1 6 C-2.32 5.67 -3.64 5.34 -5 5 C-3.35 3.35 -1.7 1.7 0 0 Z " fill="#3986AD" transform="translate(34,249)"/>
<path d="M0 0 C0.33 0 0.66 0 1 0 C1.125 4.75 1.125 4.75 0 7 C-1.65 7 -3.3 7 -5 7 C-4.67 6.01 -4.34 5.02 -4 4 C-2.68 4 -1.36 4 0 4 C0 2.68 0 1.36 0 0 Z " fill="#D7D7D7" transform="translate(425,225)"/>
</svg>
